<svg width="130" height="130" viewBox="0 0 130 130" fill="none" xmlns="http://www.w3.org/2000/svg">
<circle cx="65" cy="65" r="65" fill="white"/>
<rect width="130" height="130" fill="white"/>
<path d="M64.917 0C29.065 0 0 29.061 0 64.915C0 100.768 29.066 129.832 64.917 129.832C100.771 129.832 129.835 100.768 129.835 64.915C129.835 29.061 100.771 0 64.917 0ZM99.333 31.29C98.979 31.018 98.526 30.788 97.985 30.6C97.456 30.413 96.878 30.223 96.262 30.038C95.657 29.854 95.082 29.604 94.561 29.292C94.043 28.987 93.608 28.573 93.264 28.071C92.924 27.571 92.752 26.901 92.752 26.076C92.752 25.276 92.91 24.564 93.225 23.968C93.543 23.363 93.969 22.851 94.495 22.447C95.024 22.038 95.641 21.728 96.325 21.523C97.018 21.319 97.743 21.214 98.473 21.214C99.325 21.214 100.157 21.338 100.946 21.576C101.706 21.81 102.405 22.196 103.02 22.727L100.846 25.106C100.571 24.789 100.207 24.547 99.762 24.393C99.289 24.225 98.832 24.142 98.41 24.142C98.162 24.142 97.902 24.168 97.639 24.228C97.375 24.287 97.123 24.379 96.887 24.505C96.647 24.634 96.446 24.805 96.297 25.014C96.143 25.229 96.065 25.493 96.065 25.794C96.065 26.289 96.245 26.655 96.618 26.92C96.966 27.168 97.411 27.384 97.944 27.554C98.465 27.727 99.034 27.903 99.633 28.071C100.225 28.242 100.785 28.485 101.301 28.794C101.813 29.102 102.242 29.523 102.574 30.038C102.91 30.553 103.078 31.25 103.078 32.122C103.078 32.948 102.922 33.682 102.613 34.301C102.304 34.918 101.883 35.436 101.357 35.84C100.832 36.242 100.209 36.553 99.517 36.747C98.814 36.947 98.066 37.046 97.29 37.046C96.317 37.046 95.399 36.898 94.565 36.601C93.756 36.312 92.995 35.847 92.292 35.212L94.552 32.728C94.892 33.158 95.323 33.499 95.822 33.74C96.355 33.99 96.916 34.121 97.484 34.121C97.765 34.121 98.048 34.089 98.332 34.024C98.617 33.958 98.875 33.853 99.107 33.725C99.341 33.589 99.529 33.412 99.675 33.204C99.82 32.989 99.894 32.73 99.894 32.444C99.896 31.949 99.71 31.573 99.333 31.29ZM81.44 21.602H84.624V33.731H90.841V36.66H81.441V21.602H81.44ZM74.511 21.602H77.693V36.66H74.511V21.602ZM63.336 21.602H65.999L72.55 36.66H68.952L67.641 33.431H61.606L60.337 36.66H56.827L63.336 21.602ZM43.6 21.602H49.407C50.171 21.602 50.906 21.676 51.595 21.827C52.274 21.971 52.879 22.223 53.391 22.566C53.901 22.91 54.311 23.376 54.612 23.955C54.913 24.534 55.065 25.273 55.065 26.142C55.065 27.192 54.789 28.098 54.243 28.834C53.72 29.539 52.952 29.997 51.962 30.205L51.728 30.255L55.579 36.66H51.762L48.579 30.574H46.785V36.66H43.601V21.602H43.6ZM26.867 25.848C27.267 24.875 27.836 24.036 28.558 23.352C29.277 22.668 30.142 22.137 31.13 21.766C32.12 21.399 33.218 21.213 34.392 21.213C35.597 21.213 36.721 21.361 37.736 21.65C38.714 21.93 39.59 22.417 40.338 23.092L38.092 25.543C37.643 25.096 37.131 24.751 36.576 24.512C35.994 24.262 35.26 24.142 34.392 24.142C33.667 24.142 33.001 24.262 32.413 24.512C31.822 24.761 31.31 25.11 30.888 25.553C30.465 25.999 30.139 26.533 29.913 27.142C29.688 27.752 29.578 28.421 29.578 29.131C29.578 29.854 29.688 30.526 29.913 31.131C30.139 31.732 30.467 32.263 30.888 32.708C31.311 33.149 31.823 33.5 32.413 33.748C33 33.995 33.668 34.119 34.392 34.119C35.13 34.119 35.773 34.036 36.311 33.868C36.817 33.711 37.233 33.549 37.547 33.383L37.569 33.37L37.604 33.337L37.638 33.276V30.719H34.908V27.796H40.694V35.618C39.723 36.117 38.703 36.482 37.664 36.703C36.601 36.933 35.498 37.045 34.392 37.045C33.218 37.045 32.121 36.86 31.13 36.492C30.142 36.127 29.276 35.591 28.558 34.907C27.839 34.226 27.267 33.383 26.867 32.408C26.465 31.436 26.26 30.334 26.26 29.131C26.26 27.93 26.465 26.826 26.867 25.848ZM47.65 77.518C46.677 77.946 45.435 78.432 44.95 78.69C44.055 79.167 42.67 80.211 41.892 81.409C41.316 82.3 40.78 83.511 40.606 84.305C40.5 84.805 40.447 85.537 40.458 86.397C40.479 88.403 40.825 91.071 41.514 92.901C42.298 94.979 42.725 95.671 43.629 97.776C44.013 98.667 44.373 99.516 44.547 99.93C44.62 100.094 44.598 100.282 44.5 100.43C44.26 100.797 43.721 101.489 42.828 101.969C41.273 102.809 37.998 103.112 36.373 103.123H36.366C34.744 103.111 31.469 102.809 29.912 101.969C29.019 101.489 28.482 100.797 28.242 100.43C28.142 100.282 28.123 100.094 28.193 99.93C28.369 99.516 28.73 98.666 29.113 97.776C30.017 95.671 30.444 94.979 31.228 92.901C31.917 91.071 32.263 88.403 32.283 86.397C32.293 85.538 32.242 84.805 32.133 84.305C31.959 83.51 31.424 82.299 30.848 81.409C30.072 80.212 28.684 79.167 27.791 78.69C27.119 78.333 24.983 77.532 24.143 77.069C23.073 76.477 21.678 75.557 20.742 74.823C19.699 74.009 17.651 71.997 16.85 71.003C15.315 69.099 13.901 66.866 13.217 64.458C12.366 61.472 12.398 60.194 12.286 59.23C12.266 59.067 12.39 58.92 12.556 58.911C13.377 58.884 16.334 58.816 26.663 58.8C26.867 58.797 27.049 58.924 27.122 59.114C30.027 66.81 37.605 73.175 47.605 76.638C48.014 76.777 48.049 77.344 47.65 77.518ZM73.081 99.42C74.352 102.795 75.046 103.914 76.515 107.336C77.136 108.781 77.722 110.162 78.007 110.828C78.122 111.099 78.091 111.398 77.931 111.646C77.538 112.244 76.663 113.363 75.216 114.144C72.691 115.509 67.372 116.003 64.733 116.013H64.723C62.084 116.003 56.767 115.509 54.241 114.144C52.794 113.363 51.923 112.244 51.53 111.646C51.37 111.398 51.339 111.099 51.454 110.828C51.739 110.162 52.321 108.781 52.942 107.336C54.412 103.914 55.106 102.795 56.378 99.42C57.498 96.447 58.061 92.117 58.095 88.854C58.109 87.467 58.026 86.272 57.851 85.458C57.57 84.171 56.699 82.21 55.763 80.761C54.503 78.81 52.249 77.122 50.8 76.349C49.704 75.765 46.239 74.466 44.874 73.712C43.136 72.755 40.871 71.257 39.352 70.069C37.659 68.745 34.333 65.482 33.035 63.864C30.541 60.77 28.243 57.144 27.132 53.237C25.754 48.387 25.807 46.315 25.623 44.748C25.592 44.477 25.793 44.24 26.061 44.23C27.742 44.169 34.927 44.013 64.732 44.043C94.534 44.013 101.719 44.169 103.399 44.23C103.67 44.24 103.872 44.477 103.838 44.748C103.654 46.315 103.707 48.388 102.33 53.237C101.217 57.144 98.92 60.77 96.426 63.864C95.127 65.481 91.803 68.744 90.11 70.069C88.589 71.257 86.323 72.755 84.585 73.712C83.222 74.466 79.755 75.765 78.663 76.349C77.212 77.122 74.96 78.81 73.696 80.761C72.762 82.21 71.891 84.171 71.612 85.458C71.434 86.272 71.354 87.468 71.368 88.854C71.397 92.117 71.962 96.447 73.081 99.42ZM112.983 71.002C112.184 71.996 110.137 74.008 109.094 74.822C108.156 75.556 106.762 76.476 105.69 77.068C104.85 77.531 102.715 78.332 102.045 78.689C101.15 79.166 99.762 80.21 98.984 81.408C98.41 82.299 97.873 83.51 97.701 84.304C97.59 84.804 97.543 85.536 97.549 86.396C97.57 88.402 97.918 91.07 98.606 92.9C99.391 94.978 99.817 95.67 100.721 97.775C101.104 98.666 101.463 99.515 101.641 99.929C101.711 100.093 101.692 100.281 101.592 100.429C101.35 100.796 100.815 101.488 99.922 101.968C98.363 102.808 95.092 103.111 93.467 103.122H93.461C91.836 103.11 88.561 102.808 87.006 101.968C86.111 101.488 85.576 100.796 85.334 100.429C85.234 100.281 85.215 100.093 85.285 99.929C85.461 99.515 85.82 98.665 86.205 97.775C87.109 95.67 87.535 94.978 88.318 92.9C89.007 91.07 89.355 88.402 89.377 86.396C89.383 85.537 89.334 84.804 89.227 84.304C89.053 83.509 88.516 82.298 87.942 81.408C87.165 80.211 85.778 79.166 84.883 78.689C84.399 78.431 83.153 77.945 82.184 77.517C81.784 77.343 81.819 76.777 82.229 76.636C92.231 73.173 99.807 66.808 102.711 59.112C102.785 58.922 102.969 58.795 103.17 58.798C113.5 58.815 116.457 58.882 117.277 58.909C117.443 58.919 117.566 59.065 117.547 59.228C117.438 60.192 117.467 61.469 116.617 64.456C115.933 66.865 114.519 69.098 112.983 71.002ZM51.752 26.117C51.752 26.555 51.653 26.896 51.465 27.139C51.276 27.381 51.035 27.558 50.748 27.671C50.471 27.782 50.152 27.849 49.81 27.873C49.47 27.893 49.147 27.905 48.849 27.905H46.784V24.269H49.063C49.364 24.269 49.678 24.289 49.999 24.336C50.323 24.375 50.614 24.465 50.864 24.586C51.12 24.716 51.337 24.904 51.499 25.145C51.666 25.387 51.752 25.719 51.752 26.117ZM64.57 25.711L66.567 30.767H62.593L64.57 25.711Z" fill="#FEB672"/>
</svg>
